<?xml version="1.0" encoding="iso-8859-1"?>
<!-- Generator: Adobe Illustrator 19.0.0, SVG Export Plug-In . SVG Version: 6.00 Build 0)  -->
<svg version="1.1" id="Capa_1" xmlns="http://www.w3.org/2000/svg" xmlns:xlink="http://www.w3.org/1999/xlink" x="0px" y="0px"
	 viewBox="0 0 496 496" style="enable-background:new 0 0 496 496;" xml:space="preserve">
<g>
	<g>
		<g>
			<path d="M40,276h16c0-5.112,0.24-10.232,0.72-15.232l-15.92-1.536C40.264,264.744,40,270.384,40,276z"/>
			<path d="M74.856,200.168c7.784-15.552,17.952-29.672,30.24-41.96l12.552-12.552l-11.312-11.312l-12.552,12.552
				c-13.504,13.504-24.688,29.016-33.24,46.128l-1.816,3.624c-7.256,14.512-12.48,29.936-15.544,45.84l15.72,3.016
				c2.784-14.472,7.536-28.496,14.144-41.712L74.856,200.168z"/>
			<path d="M166.4,136.8l-12.8-9.6l-19.376,25.832c-19.448,25.928-35.192,54.408-46.816,84.624C71.872,278.032,64,320.44,64,363.712
				V380h16v-16.288c0-41.296,7.512-81.776,22.344-120.312c11.088-28.848,26.128-56.024,44.68-80.776L166.4,136.8z"/>
			<path d="M129.28,270.864c-6.008,18.016-10.648,36.68-13.784,55.48l-3.392,20.344l15.784,2.624l3.392-20.344
				c3-17.968,7.432-35.816,13.168-53.04c6.904-20.72,15.824-40.912,26.504-60.024l-13.968-7.816
				C145.816,228.088,136.496,249.2,129.28,270.864z"/>
			<path d="M171.888,183.736c-1.768,2.648-3.48,5.312-5.176,8l13.528,8.528c1.616-2.56,3.272-5.12,4.96-7.648l5.456-8.176
				l-13.312-8.872L171.888,183.736z"/>
			<path d="M481.504,199.216l-1.368-4.096c-11.336-33.992-32.264-63.576-60.536-85.568c-21.016-16.344-45.84-28.032-71.816-33.8
				l-5.896-1.312c-17.72-3.928-34.36-11.032-49.456-21.104L290.424,52h-84.848l-2.016,1.344
				c-15.096,10.072-31.736,17.168-49.456,21.104l-5.896,1.312c-25.968,5.768-50.8,17.456-71.816,33.8
				c-28.272,21.992-49.2,51.576-60.544,85.576l-1.352,4.08C4.872,228.08,0,258.136,0,288.544c0,40.592,8.512,79.92,25.32,116.888
				l3.312,7.28C37.264,431.72,56.336,444,77.208,444c14.248,0,27.656-5.552,37.736-15.632l6.208-6.208
				c30.2-30.2,54.584-65.168,72.48-103.936c14.68-31.824,24.64-65.52,29.584-100.176l5.312-37.152
				C229.904,171.256,238.272,164,248,164c9.728,0,18.096,7.256,19.472,16.888l5.312,37.152
				c4.944,34.656,14.904,68.36,29.584,100.176c17.888,38.768,42.272,73.736,72.48,103.936l6.208,6.208
				c10.08,10.08,23.488,15.632,37.736,15.632c20.872,0,39.944-12.28,48.576-31.28l3.312-7.28c16.8-36.96,25.32-76.288,25.32-116.888
				C496,258.136,491.128,228.08,481.504,199.216z M456.12,398.816l-3.312,7.28C446.76,419.408,433.408,428,418.792,428
				c-9.976,0-19.36-3.888-26.424-10.944l-6.208-6.208c-28.856-28.864-52.16-62.28-69.256-99.328
				c-14.04-30.408-23.544-62.616-28.272-95.744l-5.312-37.152C280.816,161.168,265.64,148,248,148s-32.824,13.168-35.312,30.624
				l-5.312,37.152c-4.728,33.128-14.232,65.336-28.272,95.744c-17.096,37.048-40.4,70.464-69.256,99.328l-6.208,6.208
				C96.568,424.112,87.184,428,77.208,428c-14.616,0-27.968-8.592-34.016-21.904l-3.312-7.28C24.04,363.936,16,326.84,16,288.544
				c0-28.688,4.6-57.048,13.68-84.28l1.352-4.08c10.336-30.984,29.424-57.96,55.192-78.008c19.152-14.888,41.784-25.544,65.456-30.8
				l5.896-1.312c18.856-4.184,36.608-11.608,52.808-22.072H285.6c16.2,10.464,33.952,17.88,52.808,22.072l5.896,1.312
				c23.672,5.248,46.304,15.904,65.456,30.8c25.776,20.048,44.856,47.024,55.184,78l1.368,4.096
				C475.4,231.504,480,259.856,480,288.544C480,326.84,471.96,363.936,456.12,398.816z"/>
			<path d="M435.456,193.016c-8.552-17.104-19.736-32.616-33.24-46.12l-12.552-12.552l-11.312,11.312l12.552,12.552
				c12.288,12.288,22.464,26.408,30.24,41.952l1.816,3.64C434.112,226.104,440,251.064,440,276h16
				c0-27.408-6.48-54.84-18.736-79.344L435.456,193.016z"/>
			<path d="M413.752,324.912c1.488,12.848,2.248,25.904,2.248,38.8V380h16v-16.288c0-13.52-0.8-27.192-2.36-40.64L413.752,324.912z"
				/>
			<path d="M408.592,237.664c-11.624-30.224-27.376-58.704-46.816-84.632L342.4,127.2l-12.8,9.6l19.376,25.832
				c18.552,24.752,33.592,51.928,44.68,80.784c8.184,21.264,14.2,43.44,17.896,65.888l15.784-2.592
				C423.48,283.168,417.16,259.944,408.592,237.664z"/>
			<path d="M366.72,270.864c-8.224-24.704-19.144-48.576-32.44-70.968l-13.752,8.168c12.704,21.408,23.144,44.232,31.016,67.856
				c5.744,17.224,10.168,35.072,13.168,53.04l3.392,20.344l15.784-2.624l-3.392-20.344
				C377.368,307.544,372.728,288.88,366.72,270.864z"/>
			<path d="M324.112,183.744l-5.456-8.184l-13.312,8.872l5.448,8.168c1.088,1.624,2.152,3.248,3.2,4.888l13.456-8.672
				C326.344,187.128,325.232,185.44,324.112,183.744z"/>
		</g>
	</g>
</g>
<g>
</g>
<g>
</g>
<g>
</g>
<g>
</g>
<g>
</g>
<g>
</g>
<g>
</g>
<g>
</g>
<g>
</g>
<g>
</g>
<g>
</g>
<g>
</g>
<g>
</g>
<g>
</g>
<g>
</g>
</svg>
