<?xml version="1.0" encoding="iso-8859-1"?>
<!-- Generator: Adobe Illustrator 19.0.0, SVG Export Plug-In . SVG Version: 6.00 Build 0)  -->
<svg version="1.1" id="Capa_1" xmlns="http://www.w3.org/2000/svg" xmlns:xlink="http://www.w3.org/1999/xlink" x="0px" y="0px"
     viewBox="0 0 496 496" style="enable-background:new 0 0 496 496;" xml:space="preserve">
<g>
	<g>
		<g>
			<path d="M464,264c0-5.016-0.784-9.856-2.216-14.408C483.104,234.744,496,210.472,496,184c0-32.248-19.472-61.248-48.896-73.672
				c-4.24-24.192-24.016-43.08-48.656-45.928C391.136,27.256,358.552,0,320,0c-31.688,0-59.056,18.576-72,45.36
				C235.056,18.576,207.688,0,176,0c-38.768,0-71.168,27.736-78.448,64.4c-24.64,2.84-44.416,21.736-48.656,45.928
				C19.472,122.752,0,151.752,0,184c0,26.456,12.896,50.728,34.216,65.584C32.784,254.136,32,258.976,32,264
				c0,7.48,1.76,14.664,5.008,21.224C24.032,298.248,16,316.2,16,336c0,31.352,20.224,58.84,49.688,68.432
				c4.392,16.352,17.2,29.256,33.496,33.784C109.008,472.44,139.936,496,176,496c31.688,0,59.056-18.576,72-45.36
				c12.944,26.792,40.312,45.36,72,45.36c35.592,0,67.12-24.056,76.864-57.888c16.208-4.52,28.968-17.4,33.368-33.664
				C459.08,395.056,480,367.944,480,336c0-19.8-8.04-37.752-21.016-50.784C462.24,278.664,464,271.472,464,264z M464,336
				c0,30.872-25.128,56-56,56s-56-25.128-56-56h-16c0,39.704,32.296,72,72,72c1.264,0,2.504-0.128,3.752-0.192
				c-4.736,8.184-13.008,14.104-22.688,15.648l-5.4,0.856l-1.168,5.336C376.152,458.832,349.864,480,320,480
				c-35.288,0-64-28.712-64-64v-16h-16v16c0,35.288-28.712,64-64,64c-26.704,0-49.888-16.128-59.424-40.232
				C140.904,437.456,160,416.928,160,392h-16c0,17.648-14.352,32-32,32s-32-14.352-32-32s14.352-32,32-32v-16
				c-24.672,0-45.04,18.72-47.688,42.696C44.896,377.64,32,358.064,32,336c0-30.872,25.128-56,56-56
				c12.872,0,24.976,4.248,34.992,12.28l10.016-12.488C120.296,269.608,104.312,264,88,264c-13.968,0-26.968,4.056-38.016,10.968
				C48.712,271.488,48,267.808,48,264c0-17.648,14.352-32,32-32v-16c-15.648,0-29.528,7.56-38.296,19.184
				C25.68,223.208,16,204.44,16,184c0-23.36,12.792-44.56,32.68-55.752C52.688,155.216,75.936,176,104,176v-16
				c-22.056,0-40-17.944-40-40c0-19.336,13.792-35.504,32.056-39.2c0.296,30.256,17.216,57.376,44.384,70.88l7.128-14.328
				C125.624,126.456,112,104.48,112,80c0-35.288,28.712-64,64-64c35.288,0,64,28.712,64,64v304h16V80c0-35.288,28.712-64,64-64
				c29.952,0,55.376,20.576,62.176,48.984c-16.056,2.888-30.368,12.632-38.68,27.008l13.856,8.016C364.48,87.664,377.76,80,392,80
				c22.056,0,40,17.944,40,40c0,22.056-17.944,40-40,40v16c28.064,0,51.312-20.784,55.32-47.752C467.208,139.44,480,160.64,480,184
				c0,20.456-9.672,39.216-25.704,51.184C445.528,223.56,431.648,216,416,216c-6.672,0-13.136,1.344-19.2,4l6.408,14.656
				C407.24,232.896,411.544,232,416,232c17.648,0,32,14.352,32,32c0,3.8-0.712,7.48-1.984,10.968
				C434.968,268.056,421.96,264,408,264v16C438.872,280,464,305.128,464,336z"/>
			<path d="M324,240c-19.848,0-36-16.152-36-36c0-19.848,16.152-36,36-36v-16c-28.672,0-52,23.328-52,52s23.328,52,52,52
				s52-23.328,52-52h-16C360,223.848,343.848,240,324,240z"/>
			<path d="M184,280c-13.232,0-24-10.768-24.04-23.296l0.304-8.016l-6.608-1.328C138.792,244.368,128,231.176,128,216
				c0-17.648,14.352-32,32-32v-16c-26.472,0-48,21.528-48,48c0,20.624,13.28,38.808,32.36,45.376
				C146.992,280.896,163.768,296,184,296c22.056,0,40-17.944,40-40h-16C208,269.232,197.232,280,184,280z"/>
			<rect x="416" y="320" width="16" height="16"/>
			<rect x="288" y="416" width="16" height="16"/>
			<rect x="144" y="328" width="16" height="16"/>
			<rect x="192" y="72" width="16" height="16"/>
			<rect x="160" y="208" width="16" height="16"/>
			<rect x="384" y="104" width="16" height="16"/>
		</g>
	</g>
        </g>    
</svg>
