<?xml version="1.0" encoding="iso-8859-1"?>
<!-- Generator: Adobe Illustrator 19.0.0, SVG Export Plug-In . SVG Version: 6.00 Build 0)  -->
<svg version="1.1" id="Capa_1" xmlns="http://www.w3.org/2000/svg" xmlns:xlink="http://www.w3.org/1999/xlink" x="0px" y="0px"
	 viewBox="0 0 496 496" style="enable-background:new 0 0 496 496;" xml:space="preserve">
<g>
	<g>
		<g>
			<path d="M264,16C175.32,16,93.544,67.44,55,147.256C20.512,169.52,0,207,0,248s20.512,78.48,55,100.744
				C93.544,428.56,175.32,480,264,480c127.92,0,232-104.08,232-232S391.92,16,264,16z M264,464
				c-83.288,0-160.04-48.752-195.528-124.192l-1.016-2.152l-2.016-1.248C34.48,317.256,16,284.208,16,248s18.48-69.256,49.44-88.408
				l2.016-1.248l1.016-2.152C103.96,80.752,180.712,32,264,32c119.104,0,216,96.896,216,216S383.104,464,264,464z"/>
			<path d="M136.12,350.392c5.104-5.568,9.856-11.6,14.112-17.92l-13.264-8.936c-3.816,5.656-8.072,11.064-12.64,16.048
				c-5.912,6.464-17.104,5.048-21.176-2.264C88.008,310.12,80,279.232,80,248s8.008-62.12,23.152-89.312
				c4.064-7.312,15.248-8.72,21.176-2.264C147.328,181.528,160,214.056,160,248c0,21.904-5.08,42.824-15.096,62.16l14.2,7.36
				C170.32,295.88,176,272.496,176,248c0-37.952-14.168-74.312-39.872-102.392c-5.608-6.104-13.472-9.608-21.592-9.608
				c-10.52,0-20.24,5.712-25.368,14.904C72.704,180.472,64,214.048,64,248c0,33.952,8.704,67.528,25.168,97.096
				C94.296,354.288,104.016,360,114.536,360C122.656,360,130.52,356.496,136.12,350.392z"/>
			<path d="M264,48c-56.784,0-111.104,24.296-149.032,66.664l11.92,10.672C161.792,86.36,211.768,64,264,64
				c98.776,0,179.592,78.24,183.8,176h-18.04l-14.176-42.528l-15.168,5.064L412.904,240h-17.392l-58.6-63.936l14.24-28.488
				l-14.312-7.16l-11.504,23.016l-15.44-16.84l-11.8,10.816l44.224,48.24l-16.016,13.344l-24.648-24.648l-11.312,11.312
				l23.616,23.624l-15.088,12.576l10.248,12.296l44.032-36.688l28.016,30.56l-41.488,45.64l-69.528-27.816l-14.728-36.816
				l-14.856,5.936l13.264,33.168l-25.416,12.704l7.16,14.312l28.784-14.392l63.832,25.528L308.464,328H264v16h38.248l-6.088,30.432
				l15.688,3.144l7.56-37.832l42.392-46.632l12.464,12.464l-13.424,26.84l14.312,7.16l12.896-25.8l17.416,5.808l5.064-15.168
				l-22.208-7.4l-15.752-15.752L395.544,256H447.8c-4.208,97.76-85.024,176-183.8,176c-52.232,0-102.208-22.36-137.112-61.336
				l-11.92,10.672C152.896,423.704,207.216,448,264,448c110.28,0,200-89.72,200-200S374.28,48,264,48z"/>
		</g>
	</g>
</g>
<g>
</g>
<g>
</g>
<g>
</g>
<g>
</g>
<g>
</g>
<g>
</g>
<g>
</g>
<g>
</g>
<g>
</g>
<g>
</g>
<g>
</g>
<g>
</g>
<g>
</g>
<g>
</g>
<g>
</g>
</svg>
