<?xml version="1.0" encoding="iso-8859-1"?>
<!-- Generator: Adobe Illustrator 19.0.0, SVG Export Plug-In . SVG Version: 6.00 Build 0)  -->
<svg version="1.1" id="Capa_1" xmlns="http://www.w3.org/2000/svg" xmlns:xlink="http://www.w3.org/1999/xlink" x="0px" y="0px"
	 viewBox="0 0 496 496" style="enable-background:new 0 0 496 496;" xml:space="preserve">
<g>
	<g>
		<g>
			<path d="M284,145.92V128h64v-16h-80v32.408c-2.672-0.128-5.304-0.408-8-0.408h-40V0h-16v144h-16V0h-16v160h88
				c83.816,0,152,68.184,152,152v112c0,30.872-25.128,56-56,56h-80c-83.816,0-152-68.184-152-152v-40h-16v40
				c0,92.632,75.368,168,168,168h80c39.704,0,72-32.296,72-72V312C428,227.536,365.272,157.624,284,145.92z"/>
			<polygon points="108,272 124,272 124,256 140,256 140,288 156,288 156,240 68,240 68,256 108,256 			"/>
			<polygon points="348,48 284,48 284,0 268,0 268,64 348,64 			"/>
			<path d="M204,232v56h16v-56c0-30.872-25.128-56-56-56h-40V0h-16v176H68v16h96C186.056,192,204,209.944,204,232z"/>
			<path d="M284,240h-32v16h32c26.472,0,48,21.528,48,48v20.152l-37,29.6l10,12.496l27-21.6V416h16v-31.352l27,21.6l10-12.496
				l-37-29.6V304C348,268.712,319.288,240,284,240z"/>
			<rect x="252" y="272" width="16" height="16"/>
		</g>
	</g>
</g>
<g>
</g>
<g>
</g>
<g>
</g>
<g>
</g>
<g>
</g>
<g>
</g>
<g>
</g>
<g>
</g>
<g>
</g>
<g>
</g>
<g>
</g>
<g>
</g>
<g>
</g>
<g>
</g>
<g>
</g>
</svg>
