<?xml version="1.0" encoding="iso-8859-1"?>
<!-- Generator: Adobe Illustrator 19.0.0, SVG Export Plug-In . SVG Version: 6.00 Build 0)  -->
<svg version="1.1" id="Capa_1" xmlns="http://www.w3.org/2000/svg" xmlns:xlink="http://www.w3.org/1999/xlink" x="0px" y="0px"
	 viewBox="0 0 496 496" style="enable-background:new 0 0 496 496;" xml:space="preserve">
<g>
	<g>
		<g>
			<path d="M496,136c0-52.936-43.064-96-96-96c-13.504,0-26.432,2.88-38.6,8.256C349.08,19.896,320.832,0,288,0
				c-25.592,0-49.064,12.112-64.016,32.184C209.376,12.688,186.168,0,160,0c-33.056,0-61.824,19.768-73.968,49.416
				C81.44,48.504,76.752,48,72,48C32.296,48,0,80.296,0,120c0,20.976,9.256,40.552,24.688,54.072C9.984,182.28,0,197.992,0,216
				c0,29.104,15.736,55.424,41.296,69.512C44.888,297.784,48,310.792,48,323.776V352h48v-57.16c36.952-7.488,64-40.184,64-78.84
				c0-8.6-1.4-16.872-3.928-24.64c16.056-8.12,28.696-21.336,36.216-37.232C203.544,163.088,217.36,168,232,168
				c18.448,0,35.048-7.888,46.736-20.416c12.456,16.352,31.416,26.568,52.072,28.072C319.168,188.44,312,205.376,312,224
				c0,0.424,0.072,0.84,0.08,1.264C306.792,224.44,301.424,224,296,224c-54.768,0-99.68,42.584-103.616,96.368
				C174.248,322.208,160,337.384,160,356c0,25.144,7.368,49.488,21.312,70.392l39.28,58.92C225.056,492.008,232.52,496,240.56,496
				h65.672c12,0,21.768-9.768,21.768-21.768c0-2.328-0.376-4.632-1.12-6.88l-5.584-16.76c-9.544-28.624-15.112-58.256-16.744-88.296
				C315.44,370.848,329.12,376,344,376c20.984,0,39.592-10.2,51.264-25.856C444.472,340.928,480,298.328,480,248
				c0-15.904-3.84-31.488-10.784-45.648C485.76,185.096,496,161.744,496,136z M405.096,331.064C406.984,325.04,408,318.64,408,312
				c0-9.616-2.088-18.856-6.192-27.488l-14.44,6.872C390.44,297.848,392,304.784,392,312c0,26.472-21.528,48-48,48s-48-21.528-48-48
				h-16c0,11.664,3.184,22.576,8.656,32H288c0,38.032,6.096,75.592,18.128,111.656l5.568,16.736c0.2,0.592,0.304,1.232,0.304,1.84
				c0,3.184-2.584,5.768-5.768,5.768H240.56c-2.68,0-5.168-1.328-6.656-3.56l-39.28-58.92C182.44,399.24,176,377.968,176,356
				c0-11.032,8.968-20,20-20s20,8.968,20,20v12h16v-12c0-15.52-9.92-28.648-23.712-33.696C211.248,276.44,249.4,240,296,240
				c6.192,0,12.296,0.672,18.256,1.928c0.008,0.032,0.008,0.056,0.016,0.088l0.184-0.048c10.72,2.288,20.944,6.552,30.184,12.688
				l8.856-13.328c-7.856-5.224-16.336-9.248-25.184-12.144c-0.144-1.72-0.312-3.448-0.312-5.184c0-30.872,25.128-56,56-56
				c7.256,0,14.328,1.368,21.008,4.072l6-14.832c-6.96-2.816-14.248-4.448-21.72-4.992C400.872,139.472,408,122.576,408,104h-16
				c0,30.872-25.128,56-56,56c-19.32,0-37.136-10.056-47.352-26.312C293.32,124.808,296,114.712,296,104h-16
				c0,26.472-21.528,48-48,48c-12.904,0-24.968-5.04-34.04-14.184c1.32-5.768,2.04-11.728,2.04-17.816
				c0-30.592-17.032-58.064-44.44-71.68l-7.128,14.328C170.376,73.544,184,95.52,184,120c0,24.032-13.536,45.776-34.408,56.688
				C135.84,152.432,109.816,136,80,136v16c35.288,0,64,28.712,64,64c0,32.928-24.456,60.472-56.872,64.048L80,280.832V336H64
				v-12.224c0-16.2-4.008-31.728-8.344-46.088l-1-3.312l-3.096-1.536C29.624,261.936,16,240.16,16,216c0-17.648,14.352-32,32-32
				s32,14.352,32,32h16c0-26.472-21.528-48-48-48c-1.472,0-2.912,0.088-4.352,0.224C26.592,158.152,16,139.856,16,120
				c0-30.872,25.128-56,56-56c13.648,0,26.8,4.968,37.032,13.984l10.576-12c-5.496-4.848-11.672-8.72-18.248-11.664
				C111.352,31.288,134.008,16,160,16c35.288,0,64,28.712,64,64h16c0-11.576-2.528-22.56-6.968-32.504
				C244.536,28.032,265.2,16,288,16c35.288,0,64,28.712,64,64h16c0-5.64-0.6-11.136-1.72-16.44C376.864,58.616,388.176,56,400,56
				c44.112,0,80,35.888,80,80s-35.888,80-80,80v16c21.256,0,40.856-7.032,56.784-18.768C461.48,224.16,464,235.984,464,248
				C464,286.096,439.952,318.968,405.096,331.064z"/>
			<rect x="296" y="264" width="16" height="16"/>
			<rect x="448" y="128" width="16" height="16"/>
			<rect x="224" y="120" width="16" height="16"/>
			<rect x="144" y="80" width="16" height="16"/>
			<rect x="48" y="136" width="16" height="16"/>
			<rect x="96" y="240" width="16" height="16"/>
			<rect x="216" y="384" width="16" height="16"/>
		</g>
	</g>
</g>
<g>
</g>
<g>
</g>
<g>
</g>
<g>
</g>
<g>
</g>
<g>
</g>
<g>
</g>
<g>
</g>
<g>
</g>
<g>
</g>
<g>
</g>
<g>
</g>
<g>
</g>
<g>
</g>
<g>
</g>
</svg>
