<?xml version="1.0" encoding="iso-8859-1"?>
<!-- Generator: Adobe Illustrator 19.0.0, SVG Export Plug-In . SVG Version: 6.00 Build 0)  -->
<svg version="1.1" id="Capa_1" xmlns="http://www.w3.org/2000/svg" xmlns:xlink="http://www.w3.org/1999/xlink" x="0px" y="0px"
	 viewBox="0 0 495.992 495.992" style="enable-background:new 0 0 495.992 495.992;" xml:space="preserve">
<g>
	<g>
		<g>
			<path d="M82.528,66.192c-11.592,11.6-19.824,26.136-23.792,42.024c-1.8,7.168-2.704,14.544-2.704,21.928v13.848h16v-13.84
				c0-6.072,0.752-12.152,2.216-18.056c3.272-13.08,10.048-25.04,19.584-34.584l7.848-7.848L90.368,58.352L82.528,66.192z"/>
			<rect x="56.072" y="159.992" width="16" height="16"/>
			<path d="M256.832,348.424l14.312,7.144l2.936-5.872c2.968-5.936,6.856-11.336,11.56-16.04c4.704-4.704,10.104-8.592,16.032-11.56
				l5.88-2.936l-7.144-14.312l-5.888,2.936c-7.48,3.744-14.272,8.64-20.192,14.56c-5.92,5.92-10.824,12.72-14.56,20.2
				L256.832,348.424z"/>
			<path d="M221.648,322.336c-5.92-5.92-12.72-10.824-20.2-14.56l-5.88-2.936l-7.144,14.312l5.872,2.936
				c5.936,2.968,11.336,6.856,16.04,11.56c4.704,4.704,8.592,10.104,11.56,16.032l2.936,5.88l14.312-7.144l-2.936-5.888
				C232.472,335.056,227.568,328.256,221.648,322.336z"/>
			<path d="M413.456,66.192l-7.848-7.856l-11.312,11.312l7.856,7.848c9.536,9.544,16.312,21.504,19.584,34.584
				c1.472,5.904,2.216,11.984,2.216,18.056v13.848h16v-13.832c0-7.384-0.904-14.76-2.704-21.928
				C433.272,92.328,425.048,77.8,413.456,66.192z"/>
			<rect x="423.944" y="159.992" width="16" height="16"/>
			<path d="M432.016,14.096C420.664,5,406.44,0,391.952,0c-19.504,0-37.696,8.72-49.904,23.936
				c-18.792,23.464-18.248,56.576-0.624,79.312l-11.912,11.912c-10.496,10.496-19.808,22.192-27.664,34.776
				c-19.536,31.24-29.856,67.232-29.856,104.08v7.144c-2.728,1.344-5.376,2.864-7.816,4.688l-16.184,12.144L231.8,265.848
				c-2.44-1.832-5.08-3.352-7.808-4.688v-7.144c0-36.84-10.32-72.832-29.848-104.08c-7.864-12.576-17.168-24.28-27.664-34.776
				l-11.944-11.944c17.648-22.848,18.152-55.872-0.592-79.288C141.736,8.72,123.544,0,104.04,0C89.552,0,75.328,5,63.968,14.104
				C57.424,19.352,0.048,67.648,0.048,144c0,70.912,35.536,110.048,42.648,117.16c12.08,12.144,28.168,18.832,45.32,18.832
				c16.968,0,32.96-6.576,45.032-18.52c24.216-23.984,25.232-63.584,2.36-88.528c-1.2-1.696-5.984-9.256-7.12-22.984l15.616,18.224
				c11.272,13.152,19.768,28.152,25.248,44.584c4.536,13.616,6.84,27.784,6.84,42.144v8.144c-14.352,8.632-24,24.304-24,42.232
				c0,5.296,0.848,10.536,2.528,15.592l6.112,18.328c5.472,16.416,14.832,31.56,27.072,43.808
				c10.272,10.28,22.72,17.568,36.288,21.528v91.448h48v-91.448c13.568-3.96,26.016-11.256,36.288-21.528
				c12.232-12.232,21.592-27.376,27.064-43.8l6.128-18.344c1.672-5.048,2.52-10.288,2.52-15.584c0-17.928-9.656-33.6-24-42.232
				v-8.144c0-4.672,0.248-9.416,0.744-14.08l-15.904-1.688c-0.56,5.232-0.84,10.536-0.84,15.768v1.984
				c-3.016-0.576-6.12-0.904-9.296-0.904h-0.936c-1.936,0-3.848,0.24-5.768,0.472v-2.448c0-33.84,9.48-66.896,27.416-95.592
				c7.224-11.56,15.776-22.304,25.416-31.944l11.768-11.768c3.2,3.184,7.92,8.696,11.304,15.12l-23.968,27.952
				c-12.616,14.728-22.136,31.528-28.264,49.928c-1.584,4.736-2.936,9.624-4.04,14.528l15.608,3.504
				c0.984-4.384,2.192-8.744,3.6-12.968c5.488-16.432,13.976-31.432,25.24-44.584l15.624-18.232
				c-1.136,13.728-5.912,21.288-7.12,22.984c-22.872,24.936-21.856,64.536,2.36,88.528c12.072,11.944,28.064,18.52,45.032,18.52
				c17.144,0,33.24-6.688,45.312-18.824c7.128-7.128,42.664-46.256,42.664-117.168C495.944,67.648,438.568,19.352,432.016,14.096z
				 M122.832,182.848l0.536,0.632c17.384,18.672,16.68,48.544-1.568,66.616c-9.056,8.96-21.056,13.896-33.784,13.896
				c-12.856,0-24.928-5.016-34-14.136C47.672,243.512,16.04,208.608,16.04,144c0-68.896,52.008-112.664,57.928-117.424
				C82.488,19.752,93.168,16,104.032,16c14.624,0,28.272,6.536,37.424,17.936c16.296,20.36,13.248,50.432-7.016,67.208
				c-2.288,2.04-22.4,20.536-22.4,42.848C112.04,166.768,120.296,179.496,122.832,182.848z M156.056,157.784l-23.96-27.96
				c3.424-6.512,8.192-12.048,11.296-15.12l11.776,11.776c9.64,9.64,18.184,20.384,25.416,31.944
				c17.92,28.696,27.408,61.744,27.408,95.592v2.448c-1.912-0.232-3.832-0.472-5.768-0.472h-0.936c-3.176,0-6.28,0.328-9.296,0.904
				v-1.984c0-16.08-2.576-31.96-7.664-47.2C178.192,189.304,168.68,172.512,156.056,157.784z M255.992,479.992h-16V407.6
				c2.648,0.248,5.312,0.392,8,0.392s5.352-0.144,8-0.392V479.992z M293.76,271.992h0.936c18.36,0,33.296,14.936,33.296,33.296
				c0,3.576-0.576,7.128-1.704,10.528l-6.12,18.336c-4.696,14.08-12.72,27.064-23.208,37.552
				c-13.08,13.088-30.472,20.288-48.968,20.288c-18.504,0-35.888-7.2-48.976-20.288c-10.488-10.496-18.512-23.48-23.2-37.544
				l-6.112-18.328c-1.136-3.416-1.712-6.968-1.712-10.544c0-18.36,14.936-33.296,33.296-33.296h0.936
				c7.152,0,14.248,2.368,19.976,6.656l25.792,19.344l25.784-19.344C279.496,274.36,286.6,271.992,293.76,271.992z M441.952,249.872
				c-9.056,9.104-21.128,14.12-33.984,14.12c-12.728,0-24.728-4.936-33.776-13.896c-18.256-18.072-18.96-47.944-1.576-66.6
				l0.536-0.632c2.528-3.36,10.792-16.088,10.792-38.856c0-22.312-20.112-40.816-22.608-43.032
				c-20.056-16.6-23.104-46.672-6.808-67.024c9.152-11.408,22.8-17.944,37.424-17.944c10.856,0,21.536,3.76,30.056,10.568
				c5.928,4.768,57.936,48.528,57.936,117.432C479.944,208.608,448.312,243.512,441.952,249.872z"/>
		</g>
	</g>
</g>
<g>
</g>
<g>
</g>
<g>
</g>
<g>
</g>
<g>
</g>
<g>
</g>
<g>
</g>
<g>
</g>
<g>
</g>
<g>
</g>
<g>
</g>
<g>
</g>
<g>
</g>
<g>
</g>
<g>
</g>
</svg>
