<?xml version="1.0" encoding="iso-8859-1"?>
<!-- Generator: Adobe Illustrator 19.0.0, SVG Export Plug-In . SVG Version: 6.00 Build 0)  -->
<svg version="1.1" id="Capa_1" xmlns="http://www.w3.org/2000/svg" xmlns:xlink="http://www.w3.org/1999/xlink" x="0px" y="0px"
	 viewBox="0 0 496 496" style="enable-background:new 0 0 496 496;" xml:space="preserve">
<g>
	<g>
		<g>
			<path d="M430.04,84H168C75.368,84,0,159.368,0,252v67.152C0,370.344,41.656,412,92.848,412c23.624,0,45.832-8.848,63.056-24.832
				l88.344,0.496c0.2,0,0.4,0,0.6,0c39.656,0,75.256-21.984,93.008-57.496l9.36-18.72c72.52-15.856,131.624-73.112,147.368-147.896
				c0.936-4.448,1.416-9.024,1.416-13.592C496,113.592,466.408,84,430.04,84z M323.544,323.016
				c-15.024,30.048-45.144,48.648-78.704,48.648c-0.16,0-0.336,0-0.496,0l-72.288-0.408l40.624-40.624
				c9.44-9.44,21.984-14.632,35.328-14.632h58.696c7.088,0,14.072-0.528,21-1.304L323.544,323.016z M478.928,160.256
				C461.88,241.224,389.448,300,306.704,300H303.8c5.208-7.184,8.2-15.968,8.2-25.296V268h-16v6.704
				c0,11.32-7.032,21.32-17.56,25.296h-30.432c-17.616,0-34.184,6.856-46.64,19.32L147.2,373.488
				C132.68,388.008,113.384,396,92.848,396C50.48,396,16,361.52,16,319.152V252c0-83.816,68.184-152,152-152h102.112l10.904,5.456
				c9.24,4.616,14.984,13.904,14.984,24.24V252h16V129.696c0-11.344-4.432-21.832-11.952-29.696H430.04
				c27.544,0,49.96,22.416,49.96,49.96C480,153.424,479.64,156.88,478.928,160.256z"/>
			<path d="M36.304,218l15.488,4c13.688-52.992,61.48-90,116.208-90v-16C105.976,116,51.816,157.944,36.304,218z"/>
			<path d="M32,252h16c0-5.024,0.312-10.08,0.928-15.008l-15.872-1.984C32.352,240.592,32,246.312,32,252z"/>
		</g>
	</g>
</g>
<g>
</g>
<g>
</g>
<g>
</g>
<g>
</g>
<g>
</g>
<g>
</g>
<g>
</g>
<g>
</g>
<g>
</g>
<g>
</g>
<g>
</g>
<g>
</g>
<g>
</g>
<g>
</g>
<g>
</g>
</svg>
