<?xml version="1.0" encoding="iso-8859-1"?>
<!-- Generator: Adobe Illustrator 19.0.0, SVG Export Plug-In . SVG Version: 6.00 Build 0)  -->
<svg version="1.1" id="Capa_1" xmlns="http://www.w3.org/2000/svg" xmlns:xlink="http://www.w3.org/1999/xlink" x="0px" y="0px"
	 viewBox="0 0 496 496" style="enable-background:new 0 0 496 496;" xml:space="preserve">
<g>
	<g>
		<g>
			<path d="M106.208,324.784c4.344-104.888,13.592-170.84,13.712-171.648l-15.84-2.264c-0.096,0.672-6.4,45.552-11.088,119.992
				c-7.84-16.464-18.48-31.656-31.336-44.512l-11.312,11.312c14.872,14.872,26.504,33.192,33.64,52.984l6.88,19.096
				c-0.808,17.056-1.488,35.232-1.984,54.424l-0.376,0.992l0.344,0.128c-0.368,14.536-0.64,29.608-0.768,45.232
				c-0.08,9.768-5.992,18.432-15.072,22.064l-19.984,7.992l5.936,14.856l19.992-7.992c15.136-6.064,25-20.504,25.128-36.8
				c0.12-14.952,0.368-29.408,0.712-43.352l4.76-12.704c7.504-20,18.968-37.808,34.088-52.928l-11.312-11.312
				C121.992,300.688,113.384,312.296,106.208,324.784z"/>
			<path d="M467.88,173.408c-8.648-22.48-21.664-42.496-38.68-59.512l-2.456-2.456C416.936,101.624,403.36,96,389.488,96
				c-16.096,0-31.096,7.208-41.16,19.784l-2.8,3.488c-15.672,19.6-29.144,40.504-40.448,62.496L288,164.688V0h-80v164.688
				l-17.088,17.088c-11.296-22-24.776-42.896-40.448-62.488l-2.808-3.512C137.608,103.208,122.608,96,106.512,96
				c-13.872,0-27.456,5.624-37.264,15.44l-2.448,2.448c-17.016,17.016-30.032,37.04-38.68,59.512C9.464,221.92,0,272.864,0,324.912
				c0,45.384,7.272,90.216,21.632,133.264C29.168,480.8,50.256,496,74.104,496c10.624,0,20.968-3.04,29.912-8.792l94.432-60.704
				c4.384-2.816,8.472-6.112,12.152-9.8c13.8-13.792,21.4-32.144,21.4-51.656v-13.336c0-32.344-4.224-64.584-12.552-95.84
				l6.896-6.896C232.048,243.264,239.936,240,248,240c8.064,0,15.952,3.264,21.656,8.968l6.896,6.896
				C268.224,287.12,264,319.368,264,351.712v13.336c0,19.512,7.6,37.864,21.4,51.664c3.688,3.688,7.776,6.984,12.16,9.8
				l94.432,60.704c8.936,5.744,19.28,8.784,29.904,8.784c23.84,0,44.936-15.2,52.472-37.824C488.728,415.136,496,370.296,496,324.84
				C496,272.864,486.536,221.92,467.88,173.408z M224,48h16V32h-16V16h48v16h-16v16h16v16h-48V48z M224,80h48v16h-48V80z
				 M216,365.048c0,15.24-5.936,29.576-16.712,40.352c-2.88,2.872-6.08,5.456-9.504,7.656L95.36,473.76
				c-6.352,4.08-13.704,6.24-21.256,6.24c-16.944,0-31.936-10.808-37.296-26.88C23,411.704,16,368.568,16,324.84
				c0-50.008,9.104-99.024,27.056-145.688c7.832-20.376,19.632-38.528,35.056-53.952l2.456-2.456
				C87.4,115.92,96.848,112,106.512,112c11.208,0,21.656,5.024,28.656,13.768l2.8,3.512c31.016,38.768,53.216,82.736,66.016,130.688
				C211.952,289.88,216,320.752,216,351.712V365.048z M248,224c-12.272,0-24.288,4.976-32.968,13.656l-0.728,0.728
				c-4.512-14.16-9.904-27.936-16.024-41.344L224,171.312V112h48v16h-32v16h32v27.312l25.728,25.72
				c-6.128,13.416-11.512,27.184-16.024,41.344l-0.728-0.728C272.288,228.976,260.272,224,248,224z M459.192,453.12
				C453.832,469.2,438.84,480,421.896,480c-7.552,0-14.904-2.16-21.256-6.24l-94.432-60.704c-3.424-2.2-6.616-4.784-9.504-7.656
				C285.936,394.624,280,380.288,280,365.048v-13.336c0-30.96,4.048-61.832,12.016-91.752c12.8-47.952,35-91.92,66.016-130.696
				l2.792-3.488c7.008-8.752,17.448-13.776,28.664-13.776c9.664,0,19.12,3.92,25.952,10.752l2.456,2.456
				c15.424,15.424,27.216,33.576,35.056,53.952C470.896,225.824,480,274.832,480,324.912C480,368.568,473,411.704,459.192,453.12z"
				/>
			<polygon points="218.344,202.344 229.656,213.656 248,195.312 266.344,213.656 277.656,202.344 248,172.688 			"/>
			<path d="M445.656,237.656l-11.312-11.312c-12.848,12.848-23.488,28.04-31.328,44.488c-2.4-38.192-5.192-68.176-7.264-87.68
				l-15.904,1.688c2.928,27.616,7.32,76.424,9.936,139.944c-7.176-12.488-15.776-24.096-26.128-34.44l-11.312,11.312
				c15.12,15.128,26.584,32.928,34.088,52.936l4.752,12.672c0.344,13.952,0.6,28.392,0.728,43.376
				c0.128,16.288,9.992,30.736,25.136,36.8l19.984,7.992l5.936-14.856l-19.976-7.992c-9.088-3.632-15-12.296-15.08-22.064
				c-0.128-15.648-0.4-30.696-0.776-45.232l0.352-0.128l-0.384-1.016c-0.496-19.216-1.176-37.392-1.976-54.408l6.888-19.096
				C419.152,270.848,430.784,252.528,445.656,237.656z"/>
			<path d="M393.968,167.064c-1.248-10.584-2.048-16.184-2.048-16.184l-15.84,2.248c0.008,0.064,0.792,5.528,2,15.816
				L393.968,167.064z"/>
		</g>
	</g>
</g>
<g>
</g>
<g>
</g>
<g>
</g>
<g>
</g>
<g>
</g>
<g>
</g>
<g>
</g>
<g>
</g>
<g>
</g>
<g>
</g>
<g>
</g>
<g>
</g>
<g>
</g>
<g>
</g>
<g>
</g>
</svg>
