<?xml version="1.0" encoding="iso-8859-1"?>
<!-- Generator: Adobe Illustrator 19.0.0, SVG Export Plug-In . SVG Version: 6.00 Build 0)  -->
<svg version="1.1" id="Capa_1" xmlns="http://www.w3.org/2000/svg" xmlns:xlink="http://www.w3.org/1999/xlink" x="0px" y="0px"
	 viewBox="0 0 496 496" style="enable-background:new 0 0 496 496;" xml:space="preserve">
<g>
	<g>
		<g>
			
				<rect x="425.931" y="148.978" transform="matrix(-0.8943 -0.4474 0.4474 -0.8943 750.7122 491.2632)" width="14.88" height="15.999"/>
			<rect x="230.857" y="44.277" transform="matrix(0.8479 0.5302 -0.5302 0.8479 63.9753 -118.4217)" width="15" height="16"/>
			<rect x="480" y="232.308" width="16" height="16"/>
			
				<rect x="451.252" y="190.505" transform="matrix(-0.7682 -0.6403 0.6403 -0.7682 685.2652 644.1183)" width="16.001" height="14.969"/>
			<rect x="464" y="384.308" width="16" height="16"/>
			<path d="M448,400.308v-16h-12.688l26.344-26.344l-11.312-11.312L435.496,361.5l-9.248-27.76l-15.168,5.064l0.984,2.96
				l-26.488-5.296l-3.144,15.688l35.456,7.088l4.968,14.904l-10.168,10.16h-26.56l-37.688-21.536
				c8.688-4.472,15.928-11.432,20.896-20.296c7.088-12.672,8.272-27.184,4.512-40.224c19.736-5.96,34.152-24.288,34.152-45.944
				c0-2.72-0.264-5.384-0.704-8h12.96l37.6,45.128l12.296-10.248l-29.072-34.88H464v-16h-22.92l11.816-14.168L440.6,207.892
				l-20.352,24.416h-18.752c-5.656-9.752-14.704-17.336-25.64-21.184c0.056-0.936,0.144-1.864,0.144-2.816
				c0-12.392-4.76-23.664-12.496-32.192l30.072-30.072l18.512,9.256l7.16-14.312l-13.744-6.872L432,107.62V84.148l37-29.592
				L459,42.06l-27,21.608v-39.36h-16v39.36L389,42.06l-10,12.496l37,29.6v16.84l-34.344,34.344l-5.736-40.16l-15.84,2.264
				l7.432,52.04l-16.632,16.64c-4.768-2.6-10.04-4.352-15.608-5.2c2.248-13.528-1.088-27.928-10.408-39.232
				c-5.616-6.808-12.808-11.76-20.856-14.608V32.308h-16v41.568l-27.784-17.36l-8.488,13.56L288,92.74v11.568
				c-11.232,0-21.912,3.984-30.592,11.392c-0.624,0.536-1.192,1.12-1.808,1.664c-0.848-1.256-1.752-2.496-2.736-3.688
				c-8.224-9.968-19.8-16.08-32.56-17.192c-12.768-1.136-25.112,2.864-34.88,11.208c-21.144,18.064-36.408,41.848-44.16,68.8
				l-6.112,21.232l1.992,2.416c-14.264,5.336-29.392,8.168-44.928,8.168H75.664c0.544-1.32,0.952-2.68,1.528-3.992
				c11.728-26.384,27.04-50.992,45.504-73.16l12.44-14.92c26.376-31.656,47.984-66.912,64.208-104.784L184.64,5.156
				c-15.616,36.44-36.416,70.368-61.808,100.832l-12.44,14.92c-19.408,23.296-35.504,49.168-47.832,76.896
				c-6.792,15.304-11.184,31.28-13.224,47.672c-4.992-3.232-10.936-5.168-17.336-5.168c-17.648,0-32,14.352-32,32s14.352,32,32,32
				c6.32,0,12.176-1.896,17.144-5.072c1.584,16.352,4.896,32.488,10.12,48.16c9.04,27.128,27.12,50.792,50.896,66.632
				c25.792,17.192,55.8,26.28,86.792,26.28c11.776,0,23.56-1.384,35.048-4.024v2.728c0,15.912-2.552,31.648-7.584,46.768
				l15.168,5.064c5.584-16.752,8.416-34.192,8.416-51.832v-7.336c6.472-2.224,12.808-4.832,18.928-7.888l32.648-16.328l-7.16-14.312
				l-32.648,16.328c-19.4,9.704-41.128,14.832-62.816,14.832c-27.824,0-54.768-8.16-77.912-23.592
				c-20.84-13.88-36.672-34.616-44.6-58.384c-6.608-19.824-10.008-40.448-10.32-61.32l73.616,6.136l8.68,18.104
				c12.896,26.904,33.056,49.072,58.28,64.104c7.744,4.608,16.36,6.968,25.088,6.968c4.24,0,8.512-0.56,12.728-1.688
				c13.128-3.512,24.072-12.096,30.832-24.16c1.304-2.328,2.344-4.728,3.256-7.16c7.424,6.8,15.464,12.88,24.104,18.032
				c7.744,4.608,16.36,6.968,25.088,6.968c0.04,0,0.072-0.008,0.112-0.008l55.968,32h30.816l37.656,37.656l11.312-11.312
				l-26.344-26.344H448z M32,288.308c-8.824,0-16-7.176-16-16c0-8.824,7.176-16,16-16c8.816,0,16,7.176,16,16
				C48,281.132,40.816,288.308,32,288.308z M372.288,226.796C383.984,231.684,392,243.252,392,256.308
				c0,15.256-10.744,28-25.048,31.192c-4.056-6.016-9.384-11.264-15.936-15.168c-10.808-6.432-22.296-11.376-34.264-14.8
				c0.216-0.552,0.424-1.112,0.616-1.68c3.544,0.272,7.104,0.456,10.632,0.456C347.92,256.308,365.032,244.108,372.288,226.796z
				 M329.848,176.492c16.776,0.984,30.152,14.8,30.152,31.816c0,17.648-14.352,32-32,32c-2.664,0-5.336-0.104-8.016-0.272
				c-0.088-15.264-7.352-28.84-18.568-37.576c6.128-3.776,12.08-7.848,17.56-12.528
				C323.512,186.052,327.112,181.468,329.848,176.492z M156.632,180.916c6.88-23.928,20.424-45.04,39.176-61.048
				c6.48-5.536,14.664-8.152,23.096-7.448c8.472,0.744,16.144,4.808,21.616,11.44c11.352,13.776,9.584,34.36-3.928,45.896
				c-17.416,14.872-38.32,24.392-60.696,27.864c0.128-0.088,0.264-0.168,0.384-0.256c14.304-10.216,26.504-22.824,36.272-37.464
				l18.112-27.16l-13.312-8.872l-18.112,27.168c-8.68,13.016-19.536,24.224-32.256,33.32c-4.432,3.16-9.056,5.944-13.776,8.496
				L156.632,180.916z M70.104,224.308h22.112c19.336,0,38.144-3.824,55.648-11.144l2.952,3.584l21.808-2.456
				c27.472-3.104,53.176-14.288,74.352-32.36c14.464-12.352,19.832-31.648,15.464-49.136c1.752-1.68,3.52-3.352,5.368-4.928
				c6.48-5.536,14.656-8.16,23.096-7.448c8.472,0.744,16.144,4.808,21.616,11.44c11.352,13.776,9.584,34.36-3.928,45.896
				c-7.4,6.328-15.544,11.768-24.208,16.168l0.032,0.064c-3.976-1.056-8.12-1.68-12.416-1.68c-27.752,0-54.624,8.144-77.72,23.528
				L176,228.028v4.28h-16l-95.36,21.816C65.456,243.988,67.304,234.044,70.104,224.308z M143.472,271.564l-61.248-5.104
				l78.688-18.152H176v4.28l11.416,7.608c-5.168-0.216-10.352-0.256-15.56,0.088l-22.92,1.528L143.472,271.564z M259.376,342.668
				c-4.632,8.256-12.088,14.128-21,16.52c-8.688,2.32-17.736,1.048-25.488-3.576c-22.512-13.408-40.512-33.208-52.048-57.272
				l-2.28-4.76l69.328,41.6l8.232-13.72l-74.104-44.464l10.912-0.728c25.864-1.68,51.448,4.44,73.904,17.832
				C263.256,303.86,268.888,325.66,259.376,342.668z M203.152,251.468l-4.728-3.16H256v-16h-57.576l4.736-3.16
				c20.448-13.632,44.256-20.84,68.84-20.84c17.648,0,32,14.352,32,32s-14.352,32-32,32
				C247.416,272.308,223.608,265.1,203.152,251.468z M308.88,347.612c-10.704-6.376-20.416-14.304-28.968-23.48
				c-0.216-13.416-5.512-26.48-15.096-36.08c2.392,0.112,4.776,0.256,7.184,0.256c14.384,0,27.272-6.392,36.08-16.44
				c12.176,3.032,23.856,7.728,34.752,14.216c16.432,9.784,22.064,31.576,12.544,48.584c-4.632,8.256-12.088,14.128-21,16.52
				C325.68,353.508,316.632,352.236,308.88,347.612z"/>
			
				<rect x="402.214" y="304.314" transform="matrix(-0.3165 -0.9486 0.9486 -0.3165 244.343 800.6805)" width="16.84" height="15.992"/>
		</g>
	</g>
</g>
<g>
</g>
<g>
</g>
<g>
</g>
<g>
</g>
<g>
</g>
<g>
</g>
<g>
</g>
<g>
</g>
<g>
</g>
<g>
</g>
<g>
</g>
<g>
</g>
<g>
</g>
<g>
</g>
<g>
</g>
</svg>
